<?xml version="1.0" encoding="UTF-8" standalone="no"?>
<!DOCTYPE svg PUBLIC "-//W3C//DTD SVG 1.1//EN" "http://www.w3.org/Graphics/SVG/1.1/DTD/svg11.dtd">
<svg width="100%" height="100%" viewBox="0 0 1619 1250" version="1.1" xmlns="http://www.w3.org/2000/svg" xmlns:xlink="http://www.w3.org/1999/xlink" xml:space="preserve" xmlns:serif="http://www.serif.com/" style="fill-rule:evenodd;clip-rule:evenodd;stroke-linecap:round;stroke-linejoin:round;stroke-miterlimit:1.5;">
    <g transform="matrix(1,0,0,1,-351.645,-755.788)">
        <g>
            <g transform="matrix(0.970586,4.71874e-18,4.71874e-18,1,483.764,463.333)">
                <g transform="matrix(1.03031,-4.86175e-18,-4.86175e-18,1,-136.122,292.456)">
                    <path d="M546.749,88.828L462.374,152.109L546.749,215.39L546.749,88.828Z" style="fill:rgb(0,0,186);"/>
                    <path d="M1065.82,88.828L1150.19,152.109L1065.82,215.39L1065.82,88.828Z" style="fill:rgb(0,0,186);"/>
                    <path d="M529.874,152.109L1082.69,152.109" style="fill:none;stroke:rgb(0,0,186);stroke-width:28.13px;"/>
                </g>
            </g>
            <g transform="matrix(1.07942,1.07942,-0.707107,0.707107,724.478,312.363)">
                <g transform="matrix(0.463211,-0.707107,0.463211,0.707107,32.6992,577.182)">
                    <path d="M530.175,253.133L425.767,238.218L440.682,342.626L530.175,253.133Z" style="fill:rgb(0,0,186);"/>
                    <path d="M1175.8,898.754L1190.71,1003.16L1086.3,988.247L1175.8,898.754Z" style="fill:rgb(0,0,186);"/>
                    <path d="M473.496,285.947C610.794,423.244 1005.69,818.136 1142.98,955.433" style="fill:none;stroke:rgb(0,0,186);stroke-width:28.13px;"/>
                </g>
            </g>
            <g transform="matrix(-1.07942,1.07942,-0.707107,-0.707107,2224,941.072)">
                <g transform="matrix(-0.463211,-0.707107,0.463211,-0.707107,781.469,1454.97)">
                    <path d="M1175.8,342.626L1190.71,238.218L1086.3,253.133L1175.8,342.626Z" style="fill:rgb(0,0,186);"/>
                    <path d="M530.175,988.247L425.767,1003.16L440.682,898.754L530.175,988.247Z" style="fill:rgb(0,0,186);"/>
                    <path d="M1142.98,285.947C1005.69,423.244 610.794,818.136 473.496,955.433" style="fill:none;stroke:rgb(0,0,186);stroke-width:28.13px;"/>
                </g>
            </g>
            <g transform="matrix(0.970586,0,0,1,483.764,1408.21)">
                <g transform="matrix(1.03031,-0,-0,1,-136.122,-652.426)">
                    <path d="M546.749,1033.71L462.374,1096.99L546.749,1160.27L546.749,1033.71Z" style="fill:rgb(0,0,186);"/>
                    <path d="M1065.82,1033.71L1150.19,1096.99L1065.82,1160.27L1065.82,1033.71Z" style="fill:rgb(0,0,186);"/>
                    <path d="M529.874,1096.99L1082.69,1096.99" style="fill:none;stroke:rgb(0,0,186);stroke-width:28.13px;"/>
                </g>
            </g>
            <g transform="matrix(5.72181e-17,0.974977,-1,6.37144e-17,1130.05,703.125)">
                <g transform="matrix(6.53496e-17,-1,1.02566,5.86866e-17,54.0152,778.406)">
                    <path d="M397.122,363.461L333.841,279.086L270.56,363.461L397.122,363.461Z" style="fill:rgb(218,0,0);"/>
                    <path d="M397.122,885.64L333.841,970.015L270.56,885.64L397.122,885.64Z" style="fill:rgb(218,0,0);"/>
                    <path d="M333.841,346.586L333.841,902.515" style="fill:none;stroke:rgb(218,0,0);stroke-width:28.13px;"/>
                </g>
            </g>
            <g transform="matrix(6.12323e-17,0.974977,-1,5.97001e-17,2074.93,703.125)">
                <g transform="matrix(6.12323e-17,-1,1.02566,6.28039e-17,54.0152,1723.29)">
                    <path d="M1342,363.461L1278.72,279.086L1215.44,363.461L1342,363.461Z" style="fill:rgb(218,0,0);"/>
                    <path d="M1342,885.64L1278.72,970.015L1215.44,885.64L1342,885.64Z" style="fill:rgb(218,0,0);"/>
                    <path d="M1278.72,346.586L1278.72,902.515" style="fill:none;stroke:rgb(218,0,0);stroke-width:28.13px;"/>
                </g>
            </g>
            <g transform="matrix(1,0,0,1,1006.09,1254.52)">
                <g transform="matrix(1.07276,0,0,1.35507,-36.8309,-170.489)">
                    <ellipse cx="616.264" cy="567.315" rx="110.099" ry="87.162" style="fill:none;stroke:black;stroke-width:11.08px;"/>
                </g>
                <g transform="matrix(1,0,0,1,-16.3995,76.0559)">
                    <g transform="matrix(212.5,0,0,212.5,575.41,598.264)">
                        <path d="M0.259,-0L0.259,-0.631L0.023,-0.631L0.023,-0.716L0.591,-0.716L0.591,-0.631L0.354,-0.631L0.354,-0L0.259,-0Z" style="fill-rule:nonzero;"/>
                    </g>
                </g>
            </g>
            <g transform="matrix(1,0,0,1,61.2114,1254.52)">
                <g transform="matrix(1.07276,0,0,1.35507,-36.8309,-170.489)">
                    <ellipse cx="616.264" cy="567.315" rx="110.099" ry="87.162" style="fill:none;stroke:black;stroke-width:11.08px;"/>
                </g>
                <g transform="matrix(1,0,0,1,-32.7936,76.0559)">
                    <g transform="matrix(212.5,0,0,212.5,575.41,598.264)">
                        <path d="M0.412,-0.281L0.412,-0.365L0.715,-0.365L0.715,-0.1C0.669,-0.063 0.621,-0.035 0.571,-0.016C0.522,0.003 0.471,0.012 0.419,0.012C0.349,0.012 0.285,-0.003 0.227,-0.033C0.17,-0.063 0.126,-0.107 0.097,-0.164C0.068,-0.221 0.053,-0.284 0.053,-0.354C0.053,-0.424 0.068,-0.489 0.097,-0.55C0.126,-0.61 0.168,-0.655 0.223,-0.684C0.277,-0.713 0.34,-0.728 0.412,-0.728C0.463,-0.728 0.51,-0.72 0.552,-0.703C0.594,-0.686 0.627,-0.663 0.65,-0.633C0.674,-0.603 0.692,-0.564 0.705,-0.516L0.619,-0.492C0.608,-0.529 0.595,-0.557 0.579,-0.578C0.563,-0.599 0.54,-0.616 0.511,-0.628C0.481,-0.641 0.448,-0.647 0.412,-0.647C0.369,-0.647 0.331,-0.64 0.3,-0.627C0.268,-0.614 0.243,-0.597 0.223,-0.575C0.204,-0.554 0.189,-0.53 0.178,-0.504C0.16,-0.46 0.151,-0.412 0.151,-0.36C0.151,-0.297 0.162,-0.243 0.184,-0.2C0.206,-0.157 0.238,-0.125 0.28,-0.104C0.322,-0.084 0.366,-0.073 0.414,-0.073C0.455,-0.073 0.495,-0.081 0.534,-0.097C0.573,-0.113 0.602,-0.13 0.623,-0.147L0.623,-0.281L0.412,-0.281Z" style="fill-rule:nonzero;"/>
                    </g>
                </g>
            </g>
            <g transform="matrix(1,0,0,1,1006.09,309.634)">
                <g transform="matrix(1.07276,0,0,1.35507,-36.8309,-170.489)">
                    <ellipse cx="616.264" cy="567.315" rx="110.099" ry="87.162" style="fill:none;stroke:black;stroke-width:11.08px;"/>
                </g>
                <g transform="matrix(1,0,0,1,-28.9545,76.0559)">
                    <g transform="matrix(212.5,0,0,212.5,575.41,598.264)">
                        <path d="M0.588,-0.251L0.683,-0.227C0.663,-0.149 0.627,-0.09 0.575,-0.049C0.524,-0.008 0.461,0.012 0.386,0.012C0.309,0.012 0.246,-0.003 0.198,-0.035C0.15,-0.066 0.113,-0.112 0.088,-0.171C0.062,-0.231 0.05,-0.295 0.05,-0.363C0.05,-0.438 0.064,-0.503 0.093,-0.558C0.121,-0.614 0.162,-0.656 0.214,-0.685C0.267,-0.714 0.325,-0.728 0.388,-0.728C0.459,-0.728 0.52,-0.71 0.568,-0.673C0.617,-0.637 0.651,-0.586 0.67,-0.52L0.577,-0.498C0.561,-0.55 0.536,-0.588 0.505,-0.611C0.473,-0.635 0.434,-0.647 0.386,-0.647C0.331,-0.647 0.285,-0.634 0.248,-0.607C0.211,-0.581 0.185,-0.546 0.17,-0.501C0.155,-0.457 0.147,-0.411 0.147,-0.364C0.147,-0.303 0.156,-0.25 0.174,-0.204C0.192,-0.159 0.219,-0.125 0.257,-0.103C0.294,-0.08 0.335,-0.069 0.378,-0.069C0.431,-0.069 0.476,-0.084 0.513,-0.115C0.55,-0.145 0.575,-0.191 0.588,-0.251Z" style="fill-rule:nonzero;"/>
                    </g>
                </g>
            </g>
            <g transform="matrix(1,0,0,1,61.2114,309.634)">
                <g transform="matrix(1.07276,0,0,1.35507,-36.8309,-170.489)">
                    <ellipse cx="616.264" cy="567.315" rx="110.099" ry="87.162" style="fill:none;stroke:black;stroke-width:11.08px;"/>
                </g>
                <g transform="matrix(1,0,0,1,-22.0026,76.0559)">
                    <g transform="matrix(212.5,0,0,212.5,575.41,598.264)">
                        <path d="M-0.001,-0L0.273,-0.716L0.375,-0.716L0.668,-0L0.561,-0L0.477,-0.217L0.178,-0.217L0.099,-0L-0.001,-0ZM0.205,-0.294L0.448,-0.294L0.373,-0.492C0.35,-0.552 0.333,-0.602 0.322,-0.641C0.313,-0.595 0.3,-0.549 0.284,-0.504L0.205,-0.294Z" style="fill-rule:nonzero;"/>
                    </g>
                </g>
            </g>
            <g transform="matrix(1,0,0,1,58.2252,117.439)">
                <path d="M933.954,743.461L933.954,706.802L920.26,706.802L920.26,701.897L953.205,701.897L953.205,706.802L939.455,706.802L939.455,743.461L933.954,743.461Z" style="fill:rgb(0,0,186);fill-rule:nonzero;stroke:rgb(0,0,186);stroke-width:1px;stroke-linecap:butt;stroke-miterlimit:2;"/>
                <path d="M955.984,743.461L955.984,713.351L960.577,713.351L960.577,717.916C961.749,715.78 962.831,714.372 963.823,713.691C964.816,713.011 965.907,712.671 967.098,712.671C968.818,712.671 970.567,713.219 972.343,714.315L970.585,719.05C969.338,718.313 968.09,717.944 966.843,717.944C965.728,717.944 964.726,718.28 963.838,718.951C962.949,719.622 962.316,720.553 961.938,721.743C961.371,723.558 961.087,725.543 961.087,727.697L961.087,743.461L955.984,743.461Z" style="fill:rgb(0,0,186);fill-rule:nonzero;stroke:rgb(0,0,186);stroke-width:1px;stroke-linecap:butt;stroke-miterlimit:2;"/>
                <path d="M995.025,739.747C993.135,741.354 991.316,742.488 989.567,743.149C987.819,743.811 985.943,744.142 983.939,744.142C980.632,744.142 978.089,743.334 976.313,741.718C974.536,740.102 973.648,738.037 973.648,735.523C973.648,734.048 973.983,732.702 974.654,731.482C975.325,730.263 976.204,729.285 977.291,728.548C978.378,727.811 979.602,727.253 980.962,726.875C981.964,726.611 983.476,726.355 985.499,726.11C989.619,725.618 992.653,725.032 994.6,724.352C994.619,723.652 994.628,723.208 994.628,723.019C994.628,720.94 994.146,719.475 993.182,718.625C991.878,717.472 989.941,716.895 987.37,716.895C984.97,716.895 983.198,717.316 982.054,718.157C980.91,718.998 980.065,720.486 979.516,722.622L974.526,721.942C974.98,719.806 975.727,718.081 976.766,716.768C977.806,715.454 979.309,714.443 981.274,713.734C983.24,713.025 985.518,712.671 988.107,712.671C990.678,712.671 992.766,712.973 994.373,713.578C995.98,714.183 997.161,714.944 997.917,715.86C998.673,716.777 999.202,717.935 999.505,719.333C999.675,720.203 999.76,721.772 999.76,724.04L999.76,730.844C999.76,735.589 999.869,738.589 1000.09,739.846C1000.3,741.103 1000.73,742.308 1001.38,743.461L996.046,743.461C995.517,742.403 995.176,741.165 995.025,739.747ZM994.6,728.349C992.748,729.106 989.969,729.748 986.264,730.277C984.166,730.58 982.682,730.92 981.813,731.298C980.944,731.676 980.273,732.229 979.8,732.957C979.327,733.684 979.091,734.492 979.091,735.381C979.091,736.742 979.606,737.876 980.636,738.783C981.667,739.69 983.174,740.144 985.159,740.144C987.124,740.144 988.873,739.714 990.404,738.854C991.935,737.994 993.059,736.817 993.778,735.324C994.326,734.171 994.6,732.47 994.6,730.221L994.6,728.349Z" style="fill:rgb(0,0,186);fill-rule:nonzero;stroke:rgb(0,0,186);stroke-width:1px;stroke-linecap:butt;stroke-miterlimit:2;"/>
                <path d="M1007.67,743.461L1007.67,713.351L1012.26,713.351L1012.26,717.632C1014.48,714.325 1017.67,712.671 1021.85,712.671C1023.66,712.671 1025.33,712.997 1026.85,713.649C1028.37,714.301 1029.51,715.156 1030.27,716.215C1031.02,717.273 1031.55,718.53 1031.86,719.986C1032.04,720.931 1032.14,722.584 1032.14,724.947L1032.14,743.461L1027.04,743.461L1027.04,725.146C1027.04,723.066 1026.84,721.512 1026.44,720.482C1026.04,719.452 1025.34,718.629 1024.33,718.015C1023.32,717.401 1022.13,717.094 1020.77,717.094C1018.6,717.094 1016.72,717.783 1015.14,719.163C1013.56,720.543 1012.77,723.161 1012.77,727.017L1012.77,743.461L1007.67,743.461Z" style="fill:rgb(0,0,186);fill-rule:nonzero;stroke:rgb(0,0,186);stroke-width:1px;stroke-linecap:butt;stroke-miterlimit:2;"/>
                <path d="M1037.92,734.474L1042.97,733.68C1043.25,735.702 1044.04,737.252 1045.34,738.329C1046.63,739.407 1048.44,739.946 1050.77,739.946C1053.11,739.946 1054.85,739.468 1055.98,738.514C1057.12,737.559 1057.68,736.439 1057.68,735.154C1057.68,734.001 1057.18,733.094 1056.18,732.432C1055.48,731.979 1053.74,731.402 1050.96,730.703C1047.22,729.758 1044.63,728.94 1043.18,728.25C1041.74,727.56 1040.64,726.606 1039.89,725.387C1039.15,724.167 1038.77,722.821 1038.77,721.346C1038.77,720.004 1039.08,718.762 1039.69,717.618C1040.31,716.475 1041.14,715.525 1042.2,714.769C1043,714.183 1044.08,713.687 1045.45,713.28C1046.82,712.874 1048.29,712.671 1049.86,712.671C1052.22,712.671 1054.3,713.011 1056.08,713.691C1057.87,714.372 1059.19,715.293 1060.04,716.456C1060.89,717.618 1061.47,719.173 1061.8,721.12L1056.81,721.8C1056.58,720.25 1055.92,719.04 1054.83,718.171C1053.75,717.302 1052.21,716.867 1050.23,716.867C1047.88,716.867 1046.21,717.254 1045.21,718.029C1044.21,718.804 1043.71,719.711 1043.71,720.751C1043.71,721.413 1043.91,722.008 1044.33,722.537C1044.75,723.085 1045.4,723.539 1046.29,723.898C1046.8,724.087 1048.3,724.522 1050.79,725.202C1054.4,726.166 1056.92,726.955 1058.35,727.57C1059.78,728.184 1060.9,729.077 1061.71,730.249C1062.52,731.421 1062.93,732.876 1062.93,734.615C1062.93,736.316 1062.43,737.918 1061.44,739.421C1060.45,740.924 1059.02,742.086 1057.14,742.908C1055.27,743.731 1053.16,744.142 1050.79,744.142C1046.88,744.142 1043.9,743.329 1041.85,741.703C1039.8,740.078 1038.49,737.668 1037.92,734.474Z" style="fill:rgb(0,0,186);fill-rule:nonzero;stroke:rgb(0,0,186);stroke-width:1px;stroke-linecap:butt;stroke-miterlimit:2;"/>
                <path d="M1077.36,743.461L1065.91,713.351L1071.29,713.351L1077.76,731.383C1078.46,733.33 1079.1,735.352 1079.68,737.451C1080.14,735.863 1080.77,733.954 1081.59,731.723L1088.28,713.351L1093.52,713.351L1082.12,743.461L1077.36,743.461Z" style="fill:rgb(0,0,186);fill-rule:nonzero;stroke:rgb(0,0,186);stroke-width:1px;stroke-linecap:butt;stroke-miterlimit:2;"/>
                <path d="M1118.64,733.765L1123.91,734.417C1123.08,737.498 1121.54,739.889 1119.29,741.59C1117.04,743.291 1114.17,744.142 1110.67,744.142C1106.27,744.142 1102.78,742.786 1100.2,740.073C1097.62,737.361 1096.33,733.557 1096.33,728.661C1096.33,723.596 1097.63,719.664 1100.24,716.867C1102.85,714.069 1106.23,712.671 1110.39,712.671C1114.42,712.671 1117.71,714.041 1120.26,716.782C1122.81,719.522 1124.09,723.378 1124.09,728.349C1124.09,728.652 1124.08,729.106 1124.06,729.71L1101.6,729.71C1101.79,733.018 1102.73,735.551 1104.41,737.309C1106.09,739.067 1108.19,739.946 1110.7,739.946C1112.57,739.946 1114.17,739.454 1115.49,738.471C1116.82,737.488 1117.87,735.92 1118.64,733.765ZM1101.88,725.514L1118.7,725.514C1118.47,722.981 1117.83,721.082 1116.77,719.815C1115.14,717.85 1113.04,716.867 1110.45,716.867C1108.1,716.867 1106.13,717.651 1104.54,719.22C1102.94,720.789 1102.06,722.887 1101.88,725.514Z" style="fill:rgb(0,0,186);fill-rule:nonzero;stroke:rgb(0,0,186);stroke-width:1px;stroke-linecap:butt;stroke-miterlimit:2;"/>
                <path d="M1130.27,743.461L1130.27,713.351L1134.86,713.351L1134.86,717.916C1136.03,715.78 1137.11,714.372 1138.11,713.691C1139.1,713.011 1140.19,712.671 1141.38,712.671C1143.1,712.671 1144.85,713.219 1146.62,714.315L1144.87,719.05C1143.62,718.313 1142.37,717.944 1141.12,717.944C1140.01,717.944 1139.01,718.28 1138.12,718.951C1137.23,719.622 1136.6,720.553 1136.22,721.743C1135.65,723.558 1135.37,725.543 1135.37,727.697L1135.37,743.461L1130.27,743.461Z" style="fill:rgb(0,0,186);fill-rule:nonzero;stroke:rgb(0,0,186);stroke-width:1px;stroke-linecap:butt;stroke-miterlimit:2;"/>
                <path d="M1147.62,734.474L1152.66,733.68C1152.95,735.702 1153.74,737.252 1155.03,738.329C1156.33,739.407 1158.14,739.946 1160.46,739.946C1162.81,739.946 1164.54,739.468 1165.68,738.514C1166.81,737.559 1167.38,736.439 1167.38,735.154C1167.38,734.001 1166.88,733.094 1165.88,732.432C1165.18,731.979 1163.44,731.402 1160.66,730.703C1156.92,729.758 1154.32,728.94 1152.88,728.25C1151.43,727.56 1150.34,726.606 1149.59,725.387C1148.84,724.167 1148.47,722.821 1148.47,721.346C1148.47,720.004 1148.78,718.762 1149.39,717.618C1150,716.475 1150.84,715.525 1151.9,714.769C1152.69,714.183 1153.78,713.687 1155.14,713.28C1156.52,712.874 1157.99,712.671 1159.55,712.671C1161.92,712.671 1163.99,713.011 1165.78,713.691C1167.56,714.372 1168.88,715.293 1169.73,716.456C1170.58,717.618 1171.17,719.173 1171.49,721.12L1166.5,721.8C1166.27,720.25 1165.62,719.04 1164.53,718.171C1163.44,717.302 1161.91,716.867 1159.92,716.867C1157.58,716.867 1155.91,717.254 1154.9,718.029C1153.9,718.804 1153.4,719.711 1153.4,720.751C1153.4,721.413 1153.61,722.008 1154.03,722.537C1154.44,723.085 1155.09,723.539 1155.98,723.898C1156.49,724.087 1158,724.522 1160.49,725.202C1164.1,726.166 1166.62,726.955 1168.05,727.57C1169.47,728.184 1170.59,729.077 1171.4,730.249C1172.22,731.421 1172.62,732.876 1172.62,734.615C1172.62,736.316 1172.13,737.918 1171.14,739.421C1170.14,740.924 1168.71,742.086 1166.84,742.908C1164.97,743.731 1162.85,744.142 1160.49,744.142C1156.58,744.142 1153.6,743.329 1151.54,741.703C1149.49,740.078 1148.18,737.668 1147.62,734.474Z" style="fill:rgb(0,0,186);fill-rule:nonzero;stroke:rgb(0,0,186);stroke-width:1px;stroke-linecap:butt;stroke-miterlimit:2;"/>
                <path d="M1178.72,707.766L1178.72,701.897L1183.82,701.897L1183.82,707.766L1178.72,707.766ZM1178.72,743.461L1178.72,713.351L1183.82,713.351L1183.82,743.461L1178.72,743.461Z" style="fill:rgb(0,0,186);fill-rule:nonzero;stroke:rgb(0,0,186);stroke-width:1px;stroke-linecap:butt;stroke-miterlimit:2;"/>
                <path d="M1189.69,728.406C1189.69,722.83 1191.24,718.7 1194.34,716.016C1196.93,713.786 1200.09,712.671 1203.81,712.671C1207.95,712.671 1211.34,714.027 1213.96,716.739C1216.59,719.452 1217.9,723.199 1217.9,727.981C1217.9,731.856 1217.32,734.904 1216.16,737.125C1215,739.345 1213.31,741.07 1211.08,742.299C1208.86,743.527 1206.44,744.142 1203.81,744.142C1199.6,744.142 1196.19,742.79 1193.59,740.087C1190.99,737.384 1189.69,733.491 1189.69,728.406ZM1194.94,728.406C1194.94,732.262 1195.78,735.149 1197.46,737.068C1199.14,738.986 1201.26,739.946 1203.81,739.946C1206.35,739.946 1208.45,738.982 1210.13,737.054C1211.82,735.126 1212.66,732.186 1212.66,728.236C1212.66,724.512 1211.81,721.691 1210.12,719.773C1208.43,717.854 1206.33,716.895 1203.81,716.895C1201.26,716.895 1199.14,717.85 1197.46,719.759C1195.78,721.668 1194.94,724.55 1194.94,728.406Z" style="fill:rgb(0,0,186);fill-rule:nonzero;stroke:rgb(0,0,186);stroke-width:1px;stroke-linecap:butt;stroke-miterlimit:2;"/>
                <path d="M1223.88,743.461L1223.88,713.351L1228.48,713.351L1228.48,717.632C1230.69,714.325 1233.88,712.671 1238.06,712.671C1239.88,712.671 1241.54,712.997 1243.07,713.649C1244.59,714.301 1245.73,715.156 1246.48,716.215C1247.24,717.273 1247.77,718.53 1248.07,719.986C1248.26,720.931 1248.35,722.584 1248.35,724.947L1248.35,743.461L1243.25,743.461L1243.25,725.146C1243.25,723.066 1243.05,721.512 1242.65,720.482C1242.26,719.452 1241.55,718.629 1240.54,718.015C1239.53,717.401 1238.35,717.094 1236.98,717.094C1234.81,717.094 1232.93,717.783 1231.36,719.163C1229.78,720.543 1228.99,723.161 1228.99,727.017L1228.99,743.461L1223.88,743.461Z" style="fill:rgb(0,0,186);fill-rule:nonzero;stroke:rgb(0,0,186);stroke-width:1px;stroke-linecap:butt;stroke-miterlimit:2;"/>
                <path d="M1254.14,734.474L1259.18,733.68C1259.47,735.702 1260.26,737.252 1261.55,738.329C1262.85,739.407 1264.66,739.946 1266.98,739.946C1269.33,739.946 1271.06,739.468 1272.2,738.514C1273.33,737.559 1273.9,736.439 1273.9,735.154C1273.9,734.001 1273.4,733.094 1272.4,732.432C1271.7,731.979 1269.96,731.402 1267.18,730.703C1263.44,729.758 1260.84,728.94 1259.4,728.25C1257.95,727.56 1256.85,726.606 1256.11,725.387C1255.36,724.167 1254.99,722.821 1254.99,721.346C1254.99,720.004 1255.3,718.762 1255.91,717.618C1256.52,716.475 1257.36,715.525 1258.42,714.769C1259.21,714.183 1260.3,713.687 1261.66,713.28C1263.04,712.874 1264.51,712.671 1266.07,712.671C1268.44,712.671 1270.51,713.011 1272.3,713.691C1274.08,714.372 1275.4,715.293 1276.25,716.456C1277.1,717.618 1277.69,719.173 1278.01,721.12L1273.02,721.8C1272.79,720.25 1272.14,719.04 1271.05,718.171C1269.96,717.302 1268.43,716.867 1266.44,716.867C1264.1,716.867 1262.43,717.254 1261.42,718.029C1260.42,718.804 1259.92,719.711 1259.92,720.751C1259.92,721.413 1260.13,722.008 1260.55,722.537C1260.96,723.085 1261.61,723.539 1262.5,723.898C1263.01,724.087 1264.51,724.522 1267.01,725.202C1270.62,726.166 1273.14,726.955 1274.57,727.57C1275.99,728.184 1277.11,729.077 1277.92,730.249C1278.74,731.421 1279.14,732.876 1279.14,734.615C1279.14,736.316 1278.65,737.918 1277.66,739.421C1276.66,740.924 1275.23,742.086 1273.36,742.908C1271.49,743.731 1269.37,744.142 1267.01,744.142C1263.1,744.142 1260.12,743.329 1258.06,741.703C1256.01,740.078 1254.7,737.668 1254.14,734.474Z" style="fill:rgb(0,0,186);fill-rule:nonzero;stroke:rgb(0,0,186);stroke-width:1px;stroke-linecap:butt;stroke-miterlimit:2;"/>
            </g>
            <g transform="matrix(1,0,0,1,58.2252,1190.05)">
                <path d="M933.954,743.461L933.954,706.802L920.26,706.802L920.26,701.897L953.205,701.897L953.205,706.802L939.455,706.802L939.455,743.461L933.954,743.461Z" style="fill:rgb(0,0,186);fill-rule:nonzero;stroke:rgb(0,0,186);stroke-width:1px;stroke-linecap:butt;stroke-miterlimit:2;"/>
                <path d="M955.984,743.461L955.984,713.351L960.577,713.351L960.577,717.916C961.749,715.78 962.831,714.372 963.823,713.691C964.816,713.011 965.907,712.671 967.098,712.671C968.818,712.671 970.567,713.219 972.343,714.315L970.585,719.05C969.338,718.313 968.09,717.944 966.843,717.944C965.728,717.944 964.726,718.28 963.838,718.951C962.949,719.622 962.316,720.553 961.938,721.743C961.371,723.558 961.087,725.543 961.087,727.697L961.087,743.461L955.984,743.461Z" style="fill:rgb(0,0,186);fill-rule:nonzero;stroke:rgb(0,0,186);stroke-width:1px;stroke-linecap:butt;stroke-miterlimit:2;"/>
                <path d="M995.025,739.747C993.135,741.354 991.316,742.488 989.567,743.149C987.819,743.811 985.943,744.142 983.939,744.142C980.632,744.142 978.089,743.334 976.313,741.718C974.536,740.102 973.648,738.037 973.648,735.523C973.648,734.048 973.983,732.702 974.654,731.482C975.325,730.263 976.204,729.285 977.291,728.548C978.378,727.811 979.602,727.253 980.962,726.875C981.964,726.611 983.476,726.355 985.499,726.11C989.619,725.618 992.653,725.032 994.6,724.352C994.619,723.652 994.628,723.208 994.628,723.019C994.628,720.94 994.146,719.475 993.182,718.625C991.878,717.472 989.941,716.895 987.37,716.895C984.97,716.895 983.198,717.316 982.054,718.157C980.91,718.998 980.065,720.486 979.516,722.622L974.526,721.942C974.98,719.806 975.727,718.081 976.766,716.768C977.806,715.454 979.309,714.443 981.274,713.734C983.24,713.025 985.518,712.671 988.107,712.671C990.678,712.671 992.766,712.973 994.373,713.578C995.98,714.183 997.161,714.944 997.917,715.86C998.673,716.777 999.202,717.935 999.505,719.333C999.675,720.203 999.76,721.772 999.76,724.04L999.76,730.844C999.76,735.589 999.869,738.589 1000.09,739.846C1000.3,741.103 1000.73,742.308 1001.38,743.461L996.046,743.461C995.517,742.403 995.176,741.165 995.025,739.747ZM994.6,728.349C992.748,729.106 989.969,729.748 986.264,730.277C984.166,730.58 982.682,730.92 981.813,731.298C980.944,731.676 980.273,732.229 979.8,732.957C979.327,733.684 979.091,734.492 979.091,735.381C979.091,736.742 979.606,737.876 980.636,738.783C981.667,739.69 983.174,740.144 985.159,740.144C987.124,740.144 988.873,739.714 990.404,738.854C991.935,737.994 993.059,736.817 993.778,735.324C994.326,734.171 994.6,732.47 994.6,730.221L994.6,728.349Z" style="fill:rgb(0,0,186);fill-rule:nonzero;stroke:rgb(0,0,186);stroke-width:1px;stroke-linecap:butt;stroke-miterlimit:2;"/>
                <path d="M1007.67,743.461L1007.67,713.351L1012.26,713.351L1012.26,717.632C1014.48,714.325 1017.67,712.671 1021.85,712.671C1023.66,712.671 1025.33,712.997 1026.85,713.649C1028.37,714.301 1029.51,715.156 1030.27,716.215C1031.02,717.273 1031.55,718.53 1031.86,719.986C1032.04,720.931 1032.14,722.584 1032.14,724.947L1032.14,743.461L1027.04,743.461L1027.04,725.146C1027.04,723.066 1026.84,721.512 1026.44,720.482C1026.04,719.452 1025.34,718.629 1024.33,718.015C1023.32,717.401 1022.13,717.094 1020.77,717.094C1018.6,717.094 1016.72,717.783 1015.14,719.163C1013.56,720.543 1012.77,723.161 1012.77,727.017L1012.77,743.461L1007.67,743.461Z" style="fill:rgb(0,0,186);fill-rule:nonzero;stroke:rgb(0,0,186);stroke-width:1px;stroke-linecap:butt;stroke-miterlimit:2;"/>
                <path d="M1037.92,734.474L1042.97,733.68C1043.25,735.702 1044.04,737.252 1045.34,738.329C1046.63,739.407 1048.44,739.946 1050.77,739.946C1053.11,739.946 1054.85,739.468 1055.98,738.514C1057.12,737.559 1057.68,736.439 1057.68,735.154C1057.68,734.001 1057.18,733.094 1056.18,732.432C1055.48,731.979 1053.74,731.402 1050.96,730.703C1047.22,729.758 1044.63,728.94 1043.18,728.25C1041.74,727.56 1040.64,726.606 1039.89,725.387C1039.15,724.167 1038.77,722.821 1038.77,721.346C1038.77,720.004 1039.08,718.762 1039.69,717.618C1040.31,716.475 1041.14,715.525 1042.2,714.769C1043,714.183 1044.08,713.687 1045.45,713.28C1046.82,712.874 1048.29,712.671 1049.86,712.671C1052.22,712.671 1054.3,713.011 1056.08,713.691C1057.87,714.372 1059.19,715.293 1060.04,716.456C1060.89,717.618 1061.47,719.173 1061.8,721.12L1056.81,721.8C1056.58,720.25 1055.92,719.04 1054.83,718.171C1053.75,717.302 1052.21,716.867 1050.23,716.867C1047.88,716.867 1046.21,717.254 1045.21,718.029C1044.21,718.804 1043.71,719.711 1043.71,720.751C1043.71,721.413 1043.91,722.008 1044.33,722.537C1044.75,723.085 1045.4,723.539 1046.29,723.898C1046.8,724.087 1048.3,724.522 1050.79,725.202C1054.4,726.166 1056.92,726.955 1058.35,727.57C1059.78,728.184 1060.9,729.077 1061.71,730.249C1062.52,731.421 1062.93,732.876 1062.93,734.615C1062.93,736.316 1062.43,737.918 1061.44,739.421C1060.45,740.924 1059.02,742.086 1057.14,742.908C1055.27,743.731 1053.16,744.142 1050.79,744.142C1046.88,744.142 1043.9,743.329 1041.85,741.703C1039.8,740.078 1038.49,737.668 1037.92,734.474Z" style="fill:rgb(0,0,186);fill-rule:nonzero;stroke:rgb(0,0,186);stroke-width:1px;stroke-linecap:butt;stroke-miterlimit:2;"/>
                <path d="M1077.36,743.461L1065.91,713.351L1071.29,713.351L1077.76,731.383C1078.46,733.33 1079.1,735.352 1079.68,737.451C1080.14,735.863 1080.77,733.954 1081.59,731.723L1088.28,713.351L1093.52,713.351L1082.12,743.461L1077.36,743.461Z" style="fill:rgb(0,0,186);fill-rule:nonzero;stroke:rgb(0,0,186);stroke-width:1px;stroke-linecap:butt;stroke-miterlimit:2;"/>
                <path d="M1118.64,733.765L1123.91,734.417C1123.08,737.498 1121.54,739.889 1119.29,741.59C1117.04,743.291 1114.17,744.142 1110.67,744.142C1106.27,744.142 1102.78,742.786 1100.2,740.073C1097.62,737.361 1096.33,733.557 1096.33,728.661C1096.33,723.596 1097.63,719.664 1100.24,716.867C1102.85,714.069 1106.23,712.671 1110.39,712.671C1114.42,712.671 1117.71,714.041 1120.26,716.782C1122.81,719.522 1124.09,723.378 1124.09,728.349C1124.09,728.652 1124.08,729.106 1124.06,729.71L1101.6,729.71C1101.79,733.018 1102.73,735.551 1104.41,737.309C1106.09,739.067 1108.19,739.946 1110.7,739.946C1112.57,739.946 1114.17,739.454 1115.49,738.471C1116.82,737.488 1117.87,735.92 1118.64,733.765ZM1101.88,725.514L1118.7,725.514C1118.47,722.981 1117.83,721.082 1116.77,719.815C1115.14,717.85 1113.04,716.867 1110.45,716.867C1108.1,716.867 1106.13,717.651 1104.54,719.22C1102.94,720.789 1102.06,722.887 1101.88,725.514Z" style="fill:rgb(0,0,186);fill-rule:nonzero;stroke:rgb(0,0,186);stroke-width:1px;stroke-linecap:butt;stroke-miterlimit:2;"/>
                <path d="M1130.27,743.461L1130.27,713.351L1134.86,713.351L1134.86,717.916C1136.03,715.78 1137.11,714.372 1138.11,713.691C1139.1,713.011 1140.19,712.671 1141.38,712.671C1143.1,712.671 1144.85,713.219 1146.62,714.315L1144.87,719.05C1143.62,718.313 1142.37,717.944 1141.12,717.944C1140.01,717.944 1139.01,718.28 1138.12,718.951C1137.23,719.622 1136.6,720.553 1136.22,721.743C1135.65,723.558 1135.37,725.543 1135.37,727.697L1135.37,743.461L1130.27,743.461Z" style="fill:rgb(0,0,186);fill-rule:nonzero;stroke:rgb(0,0,186);stroke-width:1px;stroke-linecap:butt;stroke-miterlimit:2;"/>
                <path d="M1147.62,734.474L1152.66,733.68C1152.95,735.702 1153.74,737.252 1155.03,738.329C1156.33,739.407 1158.14,739.946 1160.46,739.946C1162.81,739.946 1164.54,739.468 1165.68,738.514C1166.81,737.559 1167.38,736.439 1167.38,735.154C1167.38,734.001 1166.88,733.094 1165.88,732.432C1165.18,731.979 1163.44,731.402 1160.66,730.703C1156.92,729.758 1154.32,728.94 1152.88,728.25C1151.43,727.56 1150.34,726.606 1149.59,725.387C1148.84,724.167 1148.47,722.821 1148.47,721.346C1148.47,720.004 1148.78,718.762 1149.39,717.618C1150,716.475 1150.84,715.525 1151.9,714.769C1152.69,714.183 1153.78,713.687 1155.14,713.28C1156.52,712.874 1157.99,712.671 1159.55,712.671C1161.92,712.671 1163.99,713.011 1165.78,713.691C1167.56,714.372 1168.88,715.293 1169.73,716.456C1170.58,717.618 1171.17,719.173 1171.49,721.12L1166.5,721.8C1166.27,720.25 1165.62,719.04 1164.53,718.171C1163.44,717.302 1161.91,716.867 1159.92,716.867C1157.58,716.867 1155.91,717.254 1154.9,718.029C1153.9,718.804 1153.4,719.711 1153.4,720.751C1153.4,721.413 1153.61,722.008 1154.03,722.537C1154.44,723.085 1155.09,723.539 1155.98,723.898C1156.49,724.087 1158,724.522 1160.49,725.202C1164.1,726.166 1166.62,726.955 1168.05,727.57C1169.47,728.184 1170.59,729.077 1171.4,730.249C1172.22,731.421 1172.62,732.876 1172.62,734.615C1172.62,736.316 1172.13,737.918 1171.14,739.421C1170.14,740.924 1168.71,742.086 1166.84,742.908C1164.97,743.731 1162.85,744.142 1160.49,744.142C1156.58,744.142 1153.6,743.329 1151.54,741.703C1149.49,740.078 1148.18,737.668 1147.62,734.474Z" style="fill:rgb(0,0,186);fill-rule:nonzero;stroke:rgb(0,0,186);stroke-width:1px;stroke-linecap:butt;stroke-miterlimit:2;"/>
                <path d="M1178.72,707.766L1178.72,701.897L1183.82,701.897L1183.82,707.766L1178.72,707.766ZM1178.72,743.461L1178.72,713.351L1183.82,713.351L1183.82,743.461L1178.72,743.461Z" style="fill:rgb(0,0,186);fill-rule:nonzero;stroke:rgb(0,0,186);stroke-width:1px;stroke-linecap:butt;stroke-miterlimit:2;"/>
                <path d="M1189.69,728.406C1189.69,722.83 1191.24,718.7 1194.34,716.016C1196.93,713.786 1200.09,712.671 1203.81,712.671C1207.95,712.671 1211.34,714.027 1213.96,716.739C1216.59,719.452 1217.9,723.199 1217.9,727.981C1217.9,731.856 1217.32,734.904 1216.16,737.125C1215,739.345 1213.31,741.07 1211.08,742.299C1208.86,743.527 1206.44,744.142 1203.81,744.142C1199.6,744.142 1196.19,742.79 1193.59,740.087C1190.99,737.384 1189.69,733.491 1189.69,728.406ZM1194.94,728.406C1194.94,732.262 1195.78,735.149 1197.46,737.068C1199.14,738.986 1201.26,739.946 1203.81,739.946C1206.35,739.946 1208.45,738.982 1210.13,737.054C1211.82,735.126 1212.66,732.186 1212.66,728.236C1212.66,724.512 1211.81,721.691 1210.12,719.773C1208.43,717.854 1206.33,716.895 1203.81,716.895C1201.26,716.895 1199.14,717.85 1197.46,719.759C1195.78,721.668 1194.94,724.55 1194.94,728.406Z" style="fill:rgb(0,0,186);fill-rule:nonzero;stroke:rgb(0,0,186);stroke-width:1px;stroke-linecap:butt;stroke-miterlimit:2;"/>
                <path d="M1223.88,743.461L1223.88,713.351L1228.48,713.351L1228.48,717.632C1230.69,714.325 1233.88,712.671 1238.06,712.671C1239.88,712.671 1241.54,712.997 1243.07,713.649C1244.59,714.301 1245.73,715.156 1246.48,716.215C1247.24,717.273 1247.77,718.53 1248.07,719.986C1248.26,720.931 1248.35,722.584 1248.35,724.947L1248.35,743.461L1243.25,743.461L1243.25,725.146C1243.25,723.066 1243.05,721.512 1242.65,720.482C1242.26,719.452 1241.55,718.629 1240.54,718.015C1239.53,717.401 1238.35,717.094 1236.98,717.094C1234.81,717.094 1232.93,717.783 1231.36,719.163C1229.78,720.543 1228.99,723.161 1228.99,727.017L1228.99,743.461L1223.88,743.461Z" style="fill:rgb(0,0,186);fill-rule:nonzero;stroke:rgb(0,0,186);stroke-width:1px;stroke-linecap:butt;stroke-miterlimit:2;"/>
                <path d="M1254.14,734.474L1259.18,733.68C1259.47,735.702 1260.26,737.252 1261.55,738.329C1262.85,739.407 1264.66,739.946 1266.98,739.946C1269.33,739.946 1271.06,739.468 1272.2,738.514C1273.33,737.559 1273.9,736.439 1273.9,735.154C1273.9,734.001 1273.4,733.094 1272.4,732.432C1271.7,731.979 1269.96,731.402 1267.18,730.703C1263.44,729.758 1260.84,728.94 1259.4,728.25C1257.95,727.56 1256.85,726.606 1256.11,725.387C1255.36,724.167 1254.99,722.821 1254.99,721.346C1254.99,720.004 1255.3,718.762 1255.91,717.618C1256.52,716.475 1257.36,715.525 1258.42,714.769C1259.21,714.183 1260.3,713.687 1261.66,713.28C1263.04,712.874 1264.51,712.671 1266.07,712.671C1268.44,712.671 1270.51,713.011 1272.3,713.691C1274.08,714.372 1275.4,715.293 1276.25,716.456C1277.1,717.618 1277.69,719.173 1278.01,721.12L1273.02,721.8C1272.79,720.25 1272.14,719.04 1271.05,718.171C1269.96,717.302 1268.43,716.867 1266.44,716.867C1264.1,716.867 1262.43,717.254 1261.42,718.029C1260.42,718.804 1259.92,719.711 1259.92,720.751C1259.92,721.413 1260.13,722.008 1260.55,722.537C1260.96,723.085 1261.61,723.539 1262.5,723.898C1263.01,724.087 1264.51,724.522 1267.01,725.202C1270.62,726.166 1273.14,726.955 1274.57,727.57C1275.99,728.184 1277.11,729.077 1277.92,730.249C1278.74,731.421 1279.14,732.876 1279.14,734.615C1279.14,736.316 1278.65,737.918 1277.66,739.421C1276.66,740.924 1275.23,742.086 1273.36,742.908C1271.49,743.731 1269.37,744.142 1267.01,744.142C1263.1,744.142 1260.12,743.329 1258.06,741.703C1256.01,740.078 1254.7,737.668 1254.14,734.474Z" style="fill:rgb(0,0,186);fill-rule:nonzero;stroke:rgb(0,0,186);stroke-width:1px;stroke-linecap:butt;stroke-miterlimit:2;"/>
            </g>
            <g transform="matrix(1,0,0,1,-568.115,657.319)">
                <path d="M933.954,743.461L933.954,706.802L920.26,706.802L920.26,701.897L953.205,701.897L953.205,706.802L939.455,706.802L939.455,743.461L933.954,743.461Z" style="fill:rgb(255,0,0);fill-rule:nonzero;stroke:rgb(255,0,0);stroke-width:1px;stroke-linecap:butt;stroke-miterlimit:2;"/>
                <path d="M955.984,743.461L955.984,713.351L960.577,713.351L960.577,717.916C961.749,715.78 962.831,714.372 963.823,713.691C964.816,713.011 965.907,712.671 967.098,712.671C968.818,712.671 970.567,713.219 972.343,714.315L970.585,719.05C969.338,718.313 968.09,717.944 966.843,717.944C965.728,717.944 964.726,718.28 963.838,718.951C962.949,719.622 962.316,720.553 961.938,721.743C961.371,723.558 961.087,725.543 961.087,727.697L961.087,743.461L955.984,743.461Z" style="fill:rgb(255,0,0);fill-rule:nonzero;stroke:rgb(255,0,0);stroke-width:1px;stroke-linecap:butt;stroke-miterlimit:2;"/>
                <path d="M995.025,739.747C993.135,741.354 991.316,742.488 989.567,743.149C987.819,743.811 985.943,744.142 983.939,744.142C980.632,744.142 978.089,743.334 976.313,741.718C974.536,740.102 973.648,738.037 973.648,735.523C973.648,734.048 973.983,732.702 974.654,731.482C975.325,730.263 976.204,729.285 977.291,728.548C978.378,727.811 979.602,727.253 980.962,726.875C981.964,726.611 983.476,726.355 985.499,726.11C989.619,725.618 992.653,725.032 994.6,724.352C994.619,723.652 994.628,723.208 994.628,723.019C994.628,720.94 994.146,719.475 993.182,718.625C991.878,717.472 989.941,716.895 987.37,716.895C984.97,716.895 983.198,717.316 982.054,718.157C980.91,718.998 980.065,720.486 979.516,722.622L974.526,721.942C974.98,719.806 975.727,718.081 976.766,716.768C977.806,715.454 979.309,714.443 981.274,713.734C983.24,713.025 985.518,712.671 988.107,712.671C990.678,712.671 992.766,712.973 994.373,713.578C995.98,714.183 997.161,714.944 997.917,715.86C998.673,716.777 999.202,717.935 999.505,719.333C999.675,720.203 999.76,721.772 999.76,724.04L999.76,730.844C999.76,735.589 999.869,738.589 1000.09,739.846C1000.3,741.103 1000.73,742.308 1001.38,743.461L996.046,743.461C995.517,742.403 995.176,741.165 995.025,739.747ZM994.6,728.349C992.748,729.106 989.969,729.748 986.264,730.277C984.166,730.58 982.682,730.92 981.813,731.298C980.944,731.676 980.273,732.229 979.8,732.957C979.327,733.684 979.091,734.492 979.091,735.381C979.091,736.742 979.606,737.876 980.636,738.783C981.667,739.69 983.174,740.144 985.159,740.144C987.124,740.144 988.873,739.714 990.404,738.854C991.935,737.994 993.059,736.817 993.778,735.324C994.326,734.171 994.6,732.47 994.6,730.221L994.6,728.349Z" style="fill:rgb(255,0,0);fill-rule:nonzero;stroke:rgb(255,0,0);stroke-width:1px;stroke-linecap:butt;stroke-miterlimit:2;"/>
                <path d="M1007.67,743.461L1007.67,713.351L1012.26,713.351L1012.26,717.632C1014.48,714.325 1017.67,712.671 1021.85,712.671C1023.66,712.671 1025.33,712.997 1026.85,713.649C1028.37,714.301 1029.51,715.156 1030.27,716.215C1031.02,717.273 1031.55,718.53 1031.86,719.986C1032.04,720.931 1032.14,722.584 1032.14,724.947L1032.14,743.461L1027.04,743.461L1027.04,725.146C1027.04,723.066 1026.84,721.512 1026.44,720.482C1026.04,719.452 1025.34,718.629 1024.33,718.015C1023.32,717.401 1022.13,717.094 1020.77,717.094C1018.6,717.094 1016.72,717.783 1015.14,719.163C1013.56,720.543 1012.77,723.161 1012.77,727.017L1012.77,743.461L1007.67,743.461Z" style="fill:rgb(255,0,0);fill-rule:nonzero;stroke:rgb(255,0,0);stroke-width:1px;stroke-linecap:butt;stroke-miterlimit:2;"/>
                <path d="M1037.92,734.474L1042.97,733.68C1043.25,735.702 1044.04,737.252 1045.34,738.329C1046.63,739.407 1048.44,739.946 1050.77,739.946C1053.11,739.946 1054.85,739.468 1055.98,738.514C1057.12,737.559 1057.68,736.439 1057.68,735.154C1057.68,734.001 1057.18,733.094 1056.18,732.432C1055.48,731.979 1053.74,731.402 1050.96,730.703C1047.22,729.758 1044.63,728.94 1043.18,728.25C1041.74,727.56 1040.64,726.606 1039.89,725.387C1039.15,724.167 1038.77,722.821 1038.77,721.346C1038.77,720.004 1039.08,718.762 1039.69,717.618C1040.31,716.475 1041.14,715.525 1042.2,714.769C1043,714.183 1044.08,713.687 1045.45,713.28C1046.82,712.874 1048.29,712.671 1049.86,712.671C1052.22,712.671 1054.3,713.011 1056.08,713.691C1057.87,714.372 1059.19,715.293 1060.04,716.456C1060.89,717.618 1061.47,719.173 1061.8,721.12L1056.81,721.8C1056.58,720.25 1055.92,719.04 1054.83,718.171C1053.75,717.302 1052.21,716.867 1050.23,716.867C1047.88,716.867 1046.21,717.254 1045.21,718.029C1044.21,718.804 1043.71,719.711 1043.71,720.751C1043.71,721.413 1043.91,722.008 1044.33,722.537C1044.75,723.085 1045.4,723.539 1046.29,723.898C1046.8,724.087 1048.3,724.522 1050.79,725.202C1054.4,726.166 1056.92,726.955 1058.35,727.57C1059.78,728.184 1060.9,729.077 1061.71,730.249C1062.52,731.421 1062.93,732.876 1062.93,734.615C1062.93,736.316 1062.43,737.918 1061.44,739.421C1060.45,740.924 1059.02,742.086 1057.14,742.908C1055.27,743.731 1053.16,744.142 1050.79,744.142C1046.88,744.142 1043.9,743.329 1041.85,741.703C1039.8,740.078 1038.49,737.668 1037.92,734.474Z" style="fill:rgb(255,0,0);fill-rule:nonzero;stroke:rgb(255,0,0);stroke-width:1px;stroke-linecap:butt;stroke-miterlimit:2;"/>
                <path d="M1069.03,707.766L1069.03,701.897L1074.13,701.897L1074.13,707.766L1069.03,707.766ZM1069.03,743.461L1069.03,713.351L1074.13,713.351L1074.13,743.461L1069.03,743.461Z" style="fill:rgb(255,0,0);fill-rule:nonzero;stroke:rgb(255,0,0);stroke-width:1px;stroke-linecap:butt;stroke-miterlimit:2;"/>
                <path d="M1093.04,738.897L1093.78,743.405C1092.34,743.707 1091.06,743.858 1089.92,743.858C1088.07,743.858 1086.63,743.565 1085.61,742.979C1084.59,742.393 1083.87,741.623 1083.46,740.669C1083.04,739.714 1082.83,737.706 1082.83,734.644L1082.83,717.32L1079.09,717.32L1079.09,713.351L1082.83,713.351L1082.83,705.894L1087.91,702.832L1087.91,713.351L1093.04,713.351L1093.04,717.32L1087.91,717.32L1087.91,734.927C1087.91,736.383 1088,737.318 1088.18,737.734C1088.36,738.15 1088.65,738.481 1089.06,738.726C1089.46,738.972 1090.04,739.095 1090.8,739.095C1091.37,739.095 1092.11,739.029 1093.04,738.897Z" style="fill:rgb(255,0,0);fill-rule:nonzero;stroke:rgb(255,0,0);stroke-width:1px;stroke-linecap:butt;stroke-miterlimit:2;"/>
                <path d="M1098.06,707.766L1098.06,701.897L1103.16,701.897L1103.16,707.766L1098.06,707.766ZM1098.06,743.461L1098.06,713.351L1103.16,713.351L1103.16,743.461L1098.06,743.461Z" style="fill:rgb(255,0,0);fill-rule:nonzero;stroke:rgb(255,0,0);stroke-width:1px;stroke-linecap:butt;stroke-miterlimit:2;"/>
                <path d="M1109.03,728.406C1109.03,722.83 1110.58,718.7 1113.68,716.016C1116.27,713.786 1119.43,712.671 1123.15,712.671C1127.29,712.671 1130.67,714.027 1133.3,716.739C1135.93,719.452 1137.24,723.199 1137.24,727.981C1137.24,731.856 1136.66,734.904 1135.5,737.125C1134.33,739.345 1132.64,741.07 1130.42,742.299C1128.2,743.527 1125.78,744.142 1123.15,744.142C1118.93,744.142 1115.53,742.79 1112.93,740.087C1110.33,737.384 1109.03,733.491 1109.03,728.406ZM1114.28,728.406C1114.28,732.262 1115.12,735.149 1116.8,737.068C1118.48,738.986 1120.6,739.946 1123.15,739.946C1125.68,739.946 1127.79,738.982 1129.47,737.054C1131.15,735.126 1132,732.186 1132,728.236C1132,724.512 1131.15,721.691 1129.46,719.773C1127.77,717.854 1125.66,716.895 1123.15,716.895C1120.6,716.895 1118.48,717.85 1116.8,719.759C1115.12,721.668 1114.28,724.55 1114.28,728.406Z" style="fill:rgb(255,0,0);fill-rule:nonzero;stroke:rgb(255,0,0);stroke-width:1px;stroke-linecap:butt;stroke-miterlimit:2;"/>
                <path d="M1143.22,743.461L1143.22,713.351L1147.82,713.351L1147.82,717.632C1150.03,714.325 1153.22,712.671 1157.4,712.671C1159.21,712.671 1160.88,712.997 1162.4,713.649C1163.92,714.301 1165.06,715.156 1165.82,716.215C1166.58,717.273 1167.11,718.53 1167.41,719.986C1167.6,720.931 1167.69,722.584 1167.69,724.947L1167.69,743.461L1162.59,743.461L1162.59,725.146C1162.59,723.066 1162.39,721.512 1161.99,720.482C1161.6,719.452 1160.89,718.629 1159.88,718.015C1158.87,717.401 1157.68,717.094 1156.32,717.094C1154.15,717.094 1152.27,717.783 1150.69,719.163C1149.12,720.543 1148.33,723.161 1148.33,727.017L1148.33,743.461L1143.22,743.461Z" style="fill:rgb(255,0,0);fill-rule:nonzero;stroke:rgb(255,0,0);stroke-width:1px;stroke-linecap:butt;stroke-miterlimit:2;"/>
                <path d="M1173.48,734.474L1178.52,733.68C1178.81,735.702 1179.59,737.252 1180.89,738.329C1182.18,739.407 1183.99,739.946 1186.32,739.946C1188.66,739.946 1190.4,739.468 1191.54,738.514C1192.67,737.559 1193.24,736.439 1193.24,735.154C1193.24,734.001 1192.74,733.094 1191.73,732.432C1191.03,731.979 1189.3,731.402 1186.52,730.703C1182.77,729.758 1180.18,728.94 1178.73,728.25C1177.29,727.56 1176.19,726.606 1175.44,725.387C1174.7,724.167 1174.33,722.821 1174.33,721.346C1174.33,720.004 1174.63,718.762 1175.25,717.618C1175.86,716.475 1176.7,715.525 1177.76,714.769C1178.55,714.183 1179.63,713.687 1181,713.28C1182.37,712.874 1183.84,712.671 1185.41,712.671C1187.77,712.671 1189.85,713.011 1191.63,713.691C1193.42,714.372 1194.74,715.293 1195.59,716.456C1196.44,717.618 1197.03,719.173 1197.35,721.12L1192.36,721.8C1192.13,720.25 1191.47,719.04 1190.39,718.171C1189.3,717.302 1187.76,716.867 1185.78,716.867C1183.44,716.867 1181.76,717.254 1180.76,718.029C1179.76,718.804 1179.26,719.711 1179.26,720.751C1179.26,721.413 1179.47,722.008 1179.88,722.537C1180.3,723.085 1180.95,723.539 1181.84,723.898C1182.35,724.087 1183.85,724.522 1186.35,725.202C1189.96,726.166 1192.48,726.955 1193.9,727.57C1195.33,728.184 1196.45,729.077 1197.26,730.249C1198.08,731.421 1198.48,732.876 1198.48,734.615C1198.48,736.316 1197.99,737.918 1196.99,739.421C1196,740.924 1194.57,742.086 1192.7,742.908C1190.83,743.731 1188.71,744.142 1186.35,744.142C1182.43,744.142 1179.45,743.329 1177.4,741.703C1175.35,740.078 1174.04,737.668 1173.48,734.474Z" style="fill:rgb(255,0,0);fill-rule:nonzero;stroke:rgb(255,0,0);stroke-width:1px;stroke-linecap:butt;stroke-miterlimit:2;"/>
            </g>
            <g transform="matrix(1,0,0,1,770.687,657.319)">
                <path d="M933.954,743.461L933.954,706.802L920.26,706.802L920.26,701.897L953.205,701.897L953.205,706.802L939.455,706.802L939.455,743.461L933.954,743.461Z" style="fill:rgb(255,0,0);fill-rule:nonzero;stroke:rgb(255,0,0);stroke-width:1px;stroke-linecap:butt;stroke-miterlimit:2;"/>
                <path d="M955.984,743.461L955.984,713.351L960.577,713.351L960.577,717.916C961.749,715.78 962.831,714.372 963.823,713.691C964.816,713.011 965.907,712.671 967.098,712.671C968.818,712.671 970.567,713.219 972.343,714.315L970.585,719.05C969.338,718.313 968.09,717.944 966.843,717.944C965.728,717.944 964.726,718.28 963.838,718.951C962.949,719.622 962.316,720.553 961.938,721.743C961.371,723.558 961.087,725.543 961.087,727.697L961.087,743.461L955.984,743.461Z" style="fill:rgb(255,0,0);fill-rule:nonzero;stroke:rgb(255,0,0);stroke-width:1px;stroke-linecap:butt;stroke-miterlimit:2;"/>
                <path d="M995.025,739.747C993.135,741.354 991.316,742.488 989.567,743.149C987.819,743.811 985.943,744.142 983.939,744.142C980.632,744.142 978.089,743.334 976.313,741.718C974.536,740.102 973.648,738.037 973.648,735.523C973.648,734.048 973.983,732.702 974.654,731.482C975.325,730.263 976.204,729.285 977.291,728.548C978.378,727.811 979.602,727.253 980.962,726.875C981.964,726.611 983.476,726.355 985.499,726.11C989.619,725.618 992.653,725.032 994.6,724.352C994.619,723.652 994.628,723.208 994.628,723.019C994.628,720.94 994.146,719.475 993.182,718.625C991.878,717.472 989.941,716.895 987.37,716.895C984.97,716.895 983.198,717.316 982.054,718.157C980.91,718.998 980.065,720.486 979.516,722.622L974.526,721.942C974.98,719.806 975.727,718.081 976.766,716.768C977.806,715.454 979.309,714.443 981.274,713.734C983.24,713.025 985.518,712.671 988.107,712.671C990.678,712.671 992.766,712.973 994.373,713.578C995.98,714.183 997.161,714.944 997.917,715.86C998.673,716.777 999.202,717.935 999.505,719.333C999.675,720.203 999.76,721.772 999.76,724.04L999.76,730.844C999.76,735.589 999.869,738.589 1000.09,739.846C1000.3,741.103 1000.73,742.308 1001.38,743.461L996.046,743.461C995.517,742.403 995.176,741.165 995.025,739.747ZM994.6,728.349C992.748,729.106 989.969,729.748 986.264,730.277C984.166,730.58 982.682,730.92 981.813,731.298C980.944,731.676 980.273,732.229 979.8,732.957C979.327,733.684 979.091,734.492 979.091,735.381C979.091,736.742 979.606,737.876 980.636,738.783C981.667,739.69 983.174,740.144 985.159,740.144C987.124,740.144 988.873,739.714 990.404,738.854C991.935,737.994 993.059,736.817 993.778,735.324C994.326,734.171 994.6,732.47 994.6,730.221L994.6,728.349Z" style="fill:rgb(255,0,0);fill-rule:nonzero;stroke:rgb(255,0,0);stroke-width:1px;stroke-linecap:butt;stroke-miterlimit:2;"/>
                <path d="M1007.67,743.461L1007.67,713.351L1012.26,713.351L1012.26,717.632C1014.48,714.325 1017.67,712.671 1021.85,712.671C1023.66,712.671 1025.33,712.997 1026.85,713.649C1028.37,714.301 1029.51,715.156 1030.27,716.215C1031.02,717.273 1031.55,718.53 1031.86,719.986C1032.04,720.931 1032.14,722.584 1032.14,724.947L1032.14,743.461L1027.04,743.461L1027.04,725.146C1027.04,723.066 1026.84,721.512 1026.44,720.482C1026.04,719.452 1025.34,718.629 1024.33,718.015C1023.32,717.401 1022.13,717.094 1020.77,717.094C1018.6,717.094 1016.72,717.783 1015.14,719.163C1013.56,720.543 1012.77,723.161 1012.77,727.017L1012.77,743.461L1007.67,743.461Z" style="fill:rgb(255,0,0);fill-rule:nonzero;stroke:rgb(255,0,0);stroke-width:1px;stroke-linecap:butt;stroke-miterlimit:2;"/>
                <path d="M1037.92,734.474L1042.97,733.68C1043.25,735.702 1044.04,737.252 1045.34,738.329C1046.63,739.407 1048.44,739.946 1050.77,739.946C1053.11,739.946 1054.85,739.468 1055.98,738.514C1057.12,737.559 1057.68,736.439 1057.68,735.154C1057.68,734.001 1057.18,733.094 1056.18,732.432C1055.48,731.979 1053.74,731.402 1050.96,730.703C1047.22,729.758 1044.63,728.94 1043.18,728.25C1041.74,727.56 1040.64,726.606 1039.89,725.387C1039.15,724.167 1038.77,722.821 1038.77,721.346C1038.77,720.004 1039.08,718.762 1039.69,717.618C1040.31,716.475 1041.14,715.525 1042.2,714.769C1043,714.183 1044.08,713.687 1045.45,713.28C1046.82,712.874 1048.29,712.671 1049.86,712.671C1052.22,712.671 1054.3,713.011 1056.08,713.691C1057.87,714.372 1059.19,715.293 1060.04,716.456C1060.89,717.618 1061.47,719.173 1061.8,721.12L1056.81,721.8C1056.58,720.25 1055.92,719.04 1054.83,718.171C1053.75,717.302 1052.21,716.867 1050.23,716.867C1047.88,716.867 1046.21,717.254 1045.21,718.029C1044.21,718.804 1043.71,719.711 1043.71,720.751C1043.71,721.413 1043.91,722.008 1044.33,722.537C1044.75,723.085 1045.4,723.539 1046.29,723.898C1046.8,724.087 1048.3,724.522 1050.79,725.202C1054.4,726.166 1056.92,726.955 1058.35,727.57C1059.78,728.184 1060.9,729.077 1061.71,730.249C1062.52,731.421 1062.93,732.876 1062.93,734.615C1062.93,736.316 1062.43,737.918 1061.44,739.421C1060.45,740.924 1059.02,742.086 1057.14,742.908C1055.27,743.731 1053.16,744.142 1050.79,744.142C1046.88,744.142 1043.9,743.329 1041.85,741.703C1039.8,740.078 1038.49,737.668 1037.92,734.474Z" style="fill:rgb(255,0,0);fill-rule:nonzero;stroke:rgb(255,0,0);stroke-width:1px;stroke-linecap:butt;stroke-miterlimit:2;"/>
                <path d="M1069.03,707.766L1069.03,701.897L1074.13,701.897L1074.13,707.766L1069.03,707.766ZM1069.03,743.461L1069.03,713.351L1074.13,713.351L1074.13,743.461L1069.03,743.461Z" style="fill:rgb(255,0,0);fill-rule:nonzero;stroke:rgb(255,0,0);stroke-width:1px;stroke-linecap:butt;stroke-miterlimit:2;"/>
                <path d="M1093.04,738.897L1093.78,743.405C1092.34,743.707 1091.06,743.858 1089.92,743.858C1088.07,743.858 1086.63,743.565 1085.61,742.979C1084.59,742.393 1083.87,741.623 1083.46,740.669C1083.04,739.714 1082.83,737.706 1082.83,734.644L1082.83,717.32L1079.09,717.32L1079.09,713.351L1082.83,713.351L1082.83,705.894L1087.91,702.832L1087.91,713.351L1093.04,713.351L1093.04,717.32L1087.91,717.32L1087.91,734.927C1087.91,736.383 1088,737.318 1088.18,737.734C1088.36,738.15 1088.65,738.481 1089.06,738.726C1089.46,738.972 1090.04,739.095 1090.8,739.095C1091.37,739.095 1092.11,739.029 1093.04,738.897Z" style="fill:rgb(255,0,0);fill-rule:nonzero;stroke:rgb(255,0,0);stroke-width:1px;stroke-linecap:butt;stroke-miterlimit:2;"/>
                <path d="M1098.06,707.766L1098.06,701.897L1103.16,701.897L1103.16,707.766L1098.06,707.766ZM1098.06,743.461L1098.06,713.351L1103.16,713.351L1103.16,743.461L1098.06,743.461Z" style="fill:rgb(255,0,0);fill-rule:nonzero;stroke:rgb(255,0,0);stroke-width:1px;stroke-linecap:butt;stroke-miterlimit:2;"/>
                <path d="M1109.03,728.406C1109.03,722.83 1110.58,718.7 1113.68,716.016C1116.27,713.786 1119.43,712.671 1123.15,712.671C1127.29,712.671 1130.67,714.027 1133.3,716.739C1135.93,719.452 1137.24,723.199 1137.24,727.981C1137.24,731.856 1136.66,734.904 1135.5,737.125C1134.33,739.345 1132.64,741.07 1130.42,742.299C1128.2,743.527 1125.78,744.142 1123.15,744.142C1118.93,744.142 1115.53,742.79 1112.93,740.087C1110.33,737.384 1109.03,733.491 1109.03,728.406ZM1114.28,728.406C1114.28,732.262 1115.12,735.149 1116.8,737.068C1118.48,738.986 1120.6,739.946 1123.15,739.946C1125.68,739.946 1127.79,738.982 1129.47,737.054C1131.15,735.126 1132,732.186 1132,728.236C1132,724.512 1131.15,721.691 1129.46,719.773C1127.77,717.854 1125.66,716.895 1123.15,716.895C1120.6,716.895 1118.48,717.85 1116.8,719.759C1115.12,721.668 1114.28,724.55 1114.28,728.406Z" style="fill:rgb(255,0,0);fill-rule:nonzero;stroke:rgb(255,0,0);stroke-width:1px;stroke-linecap:butt;stroke-miterlimit:2;"/>
                <path d="M1143.22,743.461L1143.22,713.351L1147.82,713.351L1147.82,717.632C1150.03,714.325 1153.22,712.671 1157.4,712.671C1159.21,712.671 1160.88,712.997 1162.4,713.649C1163.92,714.301 1165.06,715.156 1165.82,716.215C1166.58,717.273 1167.11,718.53 1167.41,719.986C1167.6,720.931 1167.69,722.584 1167.69,724.947L1167.69,743.461L1162.59,743.461L1162.59,725.146C1162.59,723.066 1162.39,721.512 1161.99,720.482C1161.6,719.452 1160.89,718.629 1159.88,718.015C1158.87,717.401 1157.68,717.094 1156.32,717.094C1154.15,717.094 1152.27,717.783 1150.69,719.163C1149.12,720.543 1148.33,723.161 1148.33,727.017L1148.33,743.461L1143.22,743.461Z" style="fill:rgb(255,0,0);fill-rule:nonzero;stroke:rgb(255,0,0);stroke-width:1px;stroke-linecap:butt;stroke-miterlimit:2;"/>
                <path d="M1173.48,734.474L1178.52,733.68C1178.81,735.702 1179.59,737.252 1180.89,738.329C1182.18,739.407 1183.99,739.946 1186.32,739.946C1188.66,739.946 1190.4,739.468 1191.54,738.514C1192.67,737.559 1193.24,736.439 1193.24,735.154C1193.24,734.001 1192.74,733.094 1191.73,732.432C1191.03,731.979 1189.3,731.402 1186.52,730.703C1182.77,729.758 1180.18,728.94 1178.73,728.25C1177.29,727.56 1176.19,726.606 1175.44,725.387C1174.7,724.167 1174.33,722.821 1174.33,721.346C1174.33,720.004 1174.63,718.762 1175.25,717.618C1175.86,716.475 1176.7,715.525 1177.76,714.769C1178.55,714.183 1179.63,713.687 1181,713.28C1182.37,712.874 1183.84,712.671 1185.41,712.671C1187.77,712.671 1189.85,713.011 1191.63,713.691C1193.42,714.372 1194.74,715.293 1195.59,716.456C1196.44,717.618 1197.03,719.173 1197.35,721.12L1192.36,721.8C1192.13,720.25 1191.47,719.04 1190.39,718.171C1189.3,717.302 1187.76,716.867 1185.78,716.867C1183.44,716.867 1181.76,717.254 1180.76,718.029C1179.76,718.804 1179.26,719.711 1179.26,720.751C1179.26,721.413 1179.47,722.008 1179.88,722.537C1180.3,723.085 1180.95,723.539 1181.84,723.898C1182.35,724.087 1183.85,724.522 1186.35,725.202C1189.96,726.166 1192.48,726.955 1193.9,727.57C1195.33,728.184 1196.45,729.077 1197.26,730.249C1198.08,731.421 1198.48,732.876 1198.48,734.615C1198.48,736.316 1197.99,737.918 1196.99,739.421C1196,740.924 1194.57,742.086 1192.7,742.908C1190.83,743.731 1188.71,744.142 1186.35,744.142C1182.43,744.142 1179.45,743.329 1177.4,741.703C1175.35,740.078 1174.04,737.668 1173.48,734.474Z" style="fill:rgb(255,0,0);fill-rule:nonzero;stroke:rgb(255,0,0);stroke-width:1px;stroke-linecap:butt;stroke-miterlimit:2;"/>
            </g>
        </g>
    </g>
</svg>
